<?xml version="1.0" encoding="utf-8"?>
<!-- Generator: Adobe Illustrator 25.0.0, SVG Export Plug-In . SVG Version: 6.00 Build 0)  -->
<svg version="1.1" id="katman_1" xmlns="http://www.w3.org/2000/svg" xmlns:xlink="http://www.w3.org/1999/xlink" x="0px" y="0px"
	 viewBox="0 0 560 400" style="enable-background:new 0 0 560 400;" xml:space="preserve">
<style type="text/css">
	.st0{fill-rule:evenodd;clip-rule:evenodd;fill:#E4001C;}
</style>
<path class="st0" d="M318.5,134.6c-15.4-0.8-24.6,6.5-24.6,23.3v83.3c0,17.7,8.3,25,24.6,24.2c15.9-0.7,24.2-7.3,24.2-26.1v-79.5
	C342.7,141.9,335.2,135.5,318.5,134.6L318.5,134.6z M258.7,135.3c-2.9,0-13.4,0.4-23.1,1v127.3c3.3,0.2,11.9,0.7,16.6,0.8v-43.2
	l6.5,0c17.4-0.1,24.6-8.5,24.6-24.6v-37.5C283.4,143.2,275.2,135.3,258.7,135.3L258.7,135.3L258.7,135.3z M206,236.8
	c0,5-1.6,8.2-7.4,7.5c-5.7-0.7-7.3-3.4-7.3-9.3v-94.6c-3.8,0.4-12.3,1.7-15.9,2.3v95.7c0,15.3,6.9,21.2,23.2,23.2
	c14.9,1.8,24.1-6.3,24.1-23.2V137.2c-3.1,0.2-13.3,1.1-16.6,1.5L206,236.8L206,236.8z M388.9,205.5l-18.4-64.7
	c-5-0.7-11.1-1.4-15.8-1.9v122.2c3.3-0.3,11.7-1.4,16-2l-1.3-72l19.5,69.2c4.2-0.7,10.2-1.8,14.2-2.7V146.3
	c-4.2-0.9-11.7-2.3-15.3-2.8L388.9,205.5L388.9,205.5z M144.6,150.3c-5.3,0-12.9,1.7-26.7,6.3v86.9c12.1,4,21.4,6.3,26.7,6.3
	c12.2,0,19-8,19-20.9v-57.7C163.6,158.3,156.7,150.3,144.6,150.3L144.6,150.3z M411.3,165.1c4.1,0.8,8.2,1.7,12.1,2.6v81.2
	c3.6-0.9,10.4-2.8,14.9-4.2v-73.1c4.3,1.2,8.4,2.4,12.1,3.6v-15.7c-11.8-4.4-24.4-8-39.1-11.3L411.3,165.1L411.3,165.1z
	 M325.9,239.7c0,5-1.6,7.6-7.4,7.8c-6.1,0.2-7.7-2.6-7.7-7.8v-79.4c0-5.2,1.6-8.1,7.7-7.9c5.9,0.2,7.4,2.9,7.4,7.9V239.7z
	 M148.5,226.6c0,5-2.8,6.7-6.2,6.7c-2.6,0-6.6-1-9.9-2v-62.7c3.3-0.9,7.3-2,9.9-2c3.4,0,6.2,1.7,6.2,6.7V226.6L148.5,226.6z
	 M468.2,167.1c18.9,9.6,29.8,20.8,29.8,32.7c0,12-10.8,23.3-29.8,32.9V167.1z M62,199.8c0,12,10.8,23.3,29.7,32.9v-65.6
	C72.8,176.7,62,187.9,62,199.8z M266.6,195.2c0,5.5-1.8,8.3-8.5,8.3l-5.8,0v-50.2c2.6-0.1,4-0.2,5.5-0.2c7.3,0,8.8,3,8.8,8.6V195.2z
	"/>
</svg>
