<?xml version="1.0" encoding="utf-8"?>
<!-- Generator: Adobe Illustrator 27.5.0, SVG Export Plug-In . SVG Version: 6.00 Build 0)  -->
<svg version="1.1" xmlns="http://www.w3.org/2000/svg" xmlns:xlink="http://www.w3.org/1999/xlink" x="0px" y="0px"
	 viewBox="0 0 750 500" style="enable-background:new 0 0 750 500;" xml:space="preserve">
<g id="BACKGROUND">
	<rect style="fill:#C6D1EE;" width="750" height="500"/>
</g>
<g id="OBJECTS">
	<g>
		<g>
			
				<rect x="82.415" y="110.775" style="fill:none;stroke:#B1BCE2;stroke-width:1.4753;stroke-miterlimit:10;" width="586.546" height="264.986"/>
			<g>
				<path style="fill:none;stroke:#FFFFFF;stroke-width:1.4753;stroke-miterlimit:10;" d="M494.731,55.769
					c0,2.763-2.24,5.002-5.002,5.002c-2.763,0-5.002-2.24-5.002-5.002s2.24-5.002,5.002-5.002
					C492.492,50.767,494.731,53.007,494.731,55.769z"/>
				<path style="fill:none;stroke:#B1BCE2;stroke-width:1.4753;stroke-miterlimit:10;" d="M83.323,395.502
					c0,2.763-2.24,5.002-5.002,5.002c-2.762,0-5.002-2.24-5.002-5.002s2.24-5.002,5.002-5.002
					C81.084,390.5,83.323,392.739,83.323,395.502z"/>
				<path style="fill:none;stroke:#B1BCE2;stroke-width:1.4753;stroke-miterlimit:10;" d="M331.172,59.784h89.448
					c2.217,0,4.015-1.797,4.015-4.015l0,0c0-2.217-1.797-4.015-4.015-4.015h-89.448c-2.217,0-4.015,1.797-4.015,4.015l0,0
					C327.157,57.986,328.954,59.784,331.172,59.784z"/>
				<path style="fill:none;stroke:#FFFFFF;stroke-width:1.4753;stroke-miterlimit:10;" d="M49.537,296.846h52.452
					c2.217,0,4.015-1.798,4.015-4.015v0c0-2.217-1.798-4.015-4.015-4.015H49.537c-2.217,0-4.015,1.798-4.015,4.015v0
					C45.522,295.048,47.32,296.846,49.537,296.846z"/>
				<path style="fill:none;stroke:#FFFFFF;stroke-width:1.4753;stroke-miterlimit:10;" d="M646.34,223.321h43.392
					c2.217,0,4.015-1.798,4.015-4.015v0c0-2.217-1.797-4.015-4.015-4.015H646.34c-2.217,0-4.015,1.798-4.015,4.015v0
					C642.325,221.524,644.122,223.321,646.34,223.321z"/>
				<path style="fill:none;stroke:#B1BCE2;stroke-width:1.4753;stroke-miterlimit:10;" d="M502.837,329.834h18.709
					c2.217,0,4.015-1.797,4.015-4.015l0,0c0-2.217-1.797-4.015-4.015-4.015h-18.709c-2.217,0-4.015,1.797-4.015,4.015l0,0
					C498.822,328.036,500.62,329.834,502.837,329.834z"/>
				
					<line style="fill:none;stroke:#B1BCE2;stroke-width:1.4753;stroke-miterlimit:10;" x1="39.404" y1="138.139" x2="92.598" y2="138.139"/>
				
					<line style="fill:none;stroke:#B1BCE2;stroke-width:1.4753;stroke-miterlimit:10;" x1="643.08" y1="324.922" x2="708.342" y2="324.922"/>
			</g>
		</g>
		<g>
			
				<ellipse transform="matrix(0.7071 -0.7071 0.7071 0.7071 113.7252 504.5869)" style="fill:#268F82;" cx="665.953" cy="115.015" rx="25.954" ry="25.954"/>
			<path style="fill:#FFFFFF;" d="M674.217,109.895c-1.96-1.919-5.098-1.885-7.015,0.074l-1.264,1.29l-1.3-1.281
				c-1.951-1.924-5.092-1.898-7.015,0.053c-1.922,1.952-1.898,5.093,0.055,7.015l4.825,4.752c0.01,0.01,0.017,0.022,0.027,0.032
				c0.77,0.755,1.722,1.206,2.712,1.358c1.527,0.235,3.139-0.245,4.302-1.432l4.747-4.847
				C676.208,114.953,676.175,111.813,674.217,109.895z"/>
		</g>
		<g>
			<g>
				<g>
					<path style="fill:#FFFFFF;" d="M129.995,71.938H63.394c-2.529,0-4.579-2.05-4.579-4.579V49.571c0-2.529,2.05-4.579,4.579-4.579
						h66.602c2.529,0,4.579,2.05,4.579,4.579v17.788C134.574,69.888,132.524,71.938,129.995,71.938z"/>
					<path style="fill:#FFFFFF;" d="M99.733,66.895l8.684,13.013c0.639,0.957,2.054,0.932,2.659-0.047l8.012-12.967H99.733z"/>
				</g>
			</g>
			<g>
				<path style="fill:#2F3C7E;" d="M82.766,58.302c0,1.772-1.436,3.208-3.208,3.208c-1.772,0-3.208-1.436-3.208-3.208
					c0-1.771,1.436-3.208,3.208-3.208C81.33,55.094,82.766,56.53,82.766,58.302z"/>
				<path style="fill:#2F3C7E;" d="M99.956,58.302c0,1.772-1.436,3.208-3.208,3.208s-3.208-1.436-3.208-3.208
					c0-1.771,1.436-3.208,3.208-3.208S99.956,56.53,99.956,58.302z"/>
				<path style="fill:#2F3C7E;" d="M117.145,58.302c0,1.772-1.436,3.208-3.208,3.208s-3.208-1.436-3.208-3.208
					c0-1.771,1.436-3.208,3.208-3.208S117.145,56.53,117.145,58.302z"/>
			</g>
		</g>
	</g>
	<g>
		<g>
			<g>
				<g>
					<path style="fill:#2F3C7E;" d="M465.78,456.912H252.904c-4.348,0-7.71-3.816-7.161-8.13l44.474-349.566
						c0.459-3.605,3.526-6.308,7.161-6.308h212.876c4.348,0,7.71,3.816,7.161,8.13l-44.474,349.566
						C472.482,454.21,469.414,456.912,465.78,456.912z"/>
				</g>
				<path style="fill:#FFFFFF;" d="M454.449,456.912H241.573c-4.348,0-7.71-3.816-7.161-8.13l44.474-349.566
					c0.459-3.605,3.526-6.308,7.161-6.308h212.876c4.348,0,7.71,3.816,7.161,8.13L461.61,450.604
					C461.151,454.21,458.083,456.912,454.449,456.912z"/>
				<path style="fill:#2F3C7E;" d="M499.478,100.607l-44.352,348.606H242.118l44.352-348.606H499.478 M500.023,92.909H286.047
					c-3.634,0-6.702,2.702-7.161,6.308l-44.474,349.566c-0.549,4.314,2.813,8.13,7.161,8.13h213.976
					c3.634,0,6.702-2.702,7.161-6.307l44.474-349.566C507.732,96.725,504.371,92.909,500.023,92.909L500.023,92.909z"/>
			</g>
			<g>
				
					<text transform="matrix(0.9897 0 -0.1435 0.9896 333.9814 164.4456)" style="fill:#602E22; font-family:'BebasNeueBold'; font-size:40.5162px;">iso 9001</text>
				<g>
					<path style="fill:#602E22;" d="M454.948,209.876H299.807c-1.439,0-2.563-1.166-2.512-2.605l0,0
						c0.051-1.439,1.258-2.605,2.697-2.605h155.141c1.439,0,2.563,1.166,2.512,2.605l0,0
						C457.594,208.71,456.387,209.876,454.948,209.876z"/>
					<path style="fill:#602E22;" d="M435.538,181.585H334.614c-1.439,0-2.563-1.166-2.513-2.605l0,0
						c0.051-1.438,1.258-2.605,2.697-2.605h100.924c1.439,0,2.563,1.166,2.513,2.605l0,0
						C438.184,180.418,436.976,181.585,435.538,181.585z"/>
					<path style="fill:#602E22;" d="M452.581,226.37H297.44c-1.438,0-2.563-1.166-2.512-2.605l0,0
						c0.051-1.438,1.258-2.605,2.697-2.605h155.141c1.439,0,2.563,1.166,2.512,2.605l0,0
						C455.227,225.204,454.02,226.37,452.581,226.37z"/>
					<path style="fill:#602E22;" d="M450.214,242.864H295.073c-1.439,0-2.563-1.166-2.512-2.605l0,0
						c0.051-1.439,1.258-2.605,2.697-2.605h155.141c1.439,0,2.563,1.166,2.513,2.605l0,0
						C452.86,241.697,451.653,242.864,450.214,242.864z"/>
					<path style="fill:#602E22;" d="M445.48,275.852H290.339c-1.439,0-2.563-1.166-2.512-2.605l0,0
						c0.051-1.439,1.258-2.605,2.697-2.605h155.141c1.439,0,2.563,1.166,2.513,2.605l0,0
						C448.126,274.686,446.919,275.852,445.48,275.852z"/>
					<path style="fill:#602E22;" d="M443.113,292.346H287.972c-1.439,0-2.563-1.166-2.512-2.605l0,0
						c0.051-1.438,1.258-2.605,2.697-2.605h155.141c1.439,0,2.563,1.166,2.512,2.605l0,0
						C445.759,291.18,444.552,292.346,443.113,292.346z"/>
					<path style="fill:#602E22;" d="M440.746,308.84H285.605c-1.439,0-2.563-1.166-2.513-2.605l0,0
						c0.051-1.439,1.258-2.605,2.697-2.605h155.141c1.438,0,2.563,1.166,2.512,2.605l0,0
						C443.392,307.674,442.185,308.84,440.746,308.84z"/>
					<path style="fill:#602E22;" d="M438.379,325.334H283.238c-1.439,0-2.563-1.166-2.512-2.605v0
						c0.051-1.439,1.258-2.605,2.697-2.605h155.141c1.438,0,2.563,1.166,2.512,2.605v0
						C441.025,324.168,439.818,325.334,438.379,325.334z"/>
					<path style="fill:#602E22;" d="M433.645,358.322H278.504c-1.439,0-2.563-1.166-2.512-2.605l0,0
						c0.051-1.439,1.258-2.605,2.697-2.605H433.83c1.439,0,2.563,1.166,2.513,2.605l0,0
						C436.291,357.156,435.084,358.322,433.645,358.322z"/>
					<path style="fill:#602E22;" d="M431.278,374.816H276.137c-1.439,0-2.563-1.166-2.512-2.605l0,0
						c0.051-1.439,1.258-2.605,2.697-2.605h155.141c1.439,0,2.563,1.166,2.512,2.605l0,0
						C433.924,373.65,432.717,374.816,431.278,374.816z"/>
					<path style="fill:#602E22;" d="M428.911,391.31H273.77c-1.438,0-2.563-1.166-2.512-2.605l0,0
						c0.051-1.438,1.258-2.605,2.697-2.605h155.141c1.438,0,2.563,1.166,2.512,2.605l0,0
						C431.557,390.144,430.35,391.31,428.911,391.31z"/>
					<path style="fill:#602E22;" d="M426.452,410.409H271.311c-1.438,0-2.563-1.166-2.512-2.605v0
						c0.051-1.439,1.258-2.605,2.697-2.605h155.141c1.439,0,2.563,1.166,2.512,2.605v0
						C429.098,409.242,427.891,410.409,426.452,410.409z"/>
				</g>
			</g>
		</g>
		<g>
			<g>
				<g>
					<path style="fill:#DC9B97;" d="M189.377,101.317c-0.006,3.357-3.284,6.03-6.536,6.039c-3.252,0.009-5.884-2.705-5.878-6.062
						c0.006-3.357,3.922-5.975,7.174-5.984C187.389,95.302,189.383,97.961,189.377,101.317z"/>
				</g>
				<path d="M146.048,89.192c0,11.035,13.682,20.305,21.592,19.981c11.026-0.452,18.815-8.946,18.815-19.981
					s-7.78-19.981-18.815-19.981S146.048,76.645,146.048,89.192z"/>
				<polygon style="fill:#E9B0AA;" points="161.338,107.575 158.938,139.636 174.776,138.706 174.029,112.19 				"/>
				<polygon points="174.482,128.291 161.36,116.505 174.132,115.84 				"/>
				<path style="fill:#E9B0AA;" d="M174.358,72.345c0,0,14.241,0.46,13.168,19.169c-1.073,18.708-3.272,23.682-10.76,27.616
					c-6.729,3.536-15.342,0.386-20.232-7.568c-1.92-3.124-3.362-7.819-3.642-11.475l-1.114-4.886
					C151.778,95.201,145.903,70.9,174.358,72.345z"/>
				<g>
					
						<polyline style="fill:none;stroke:#000000;stroke-width:0.5828;stroke-linecap:round;stroke-linejoin:round;stroke-miterlimit:10;" points="
						176.605,98.548 178.764,102.781 176.35,104.119 					"/>
					<g>
						<g>
							<defs>
								<path id="XMLID_8_" d="M171.221,95.961c0,0-0.035-2.585-4.451-2.205c-3.965,0.341-4.41,2.321-4.41,2.321
									s0.554,3.438,4.902,3.501C171.61,99.641,171.221,95.961,171.221,95.961z"/>
							</defs>
							<use xlink:href="#XMLID_8_"  style="overflow:visible;fill:#FFFFFF;"/>
							<clipPath id="XMLID_00000138539874923168929820000012502665713719218620_">
								<use xlink:href="#XMLID_8_"  style="overflow:visible;"/>
							</clipPath>
							<path style="clip-path:url(#XMLID_00000138539874923168929820000012502665713719218620_);" d="M164.681,96.385
								c0.019,1.836,1.268,3.307,2.789,3.288c1.521-0.02,2.738-1.524,2.719-3.36c-0.019-1.836-1.268-3.307-2.789-3.288
								C165.879,93.045,164.661,94.549,164.681,96.385z"/>
						</g>
						<g>
							<path d="M170.938,95.444c-0.494-0.483-1.242-0.916-1.985-1.168c-0.753-0.261-1.577-0.406-2.38-0.397
								c-0.806,0.011-1.602,0.217-2.315,0.602c-0.7,0.396-1.334,0.98-1.745,1.671l-0.009,0.015c-0.048,0.08-0.151,0.106-0.23,0.059
								c-0.076-0.045-0.103-0.142-0.064-0.22c0.805-1.611,2.51-2.686,4.326-2.823c0.904-0.071,1.798,0.014,2.679,0.246
								c0.886,0.246,1.703,0.598,2.487,1.252c0.229,0.191,0.26,0.533,0.069,0.762c-0.191,0.229-0.533,0.26-0.762,0.069
								c-0.011-0.009-0.021-0.018-0.031-0.028L170.938,95.444z"/>
						</g>
					</g>
					<g>
						<g>
							<defs>
								<path id="XMLID_6_" d="M179.357,95.969c0,0-0.025-2.515,3.017-2.238c2.73,0.249,3.073,2.166,3.073,2.166
									s-0.303,3.039-3.289,3.19C179.172,99.24,179.357,95.969,179.357,95.969z"/>
							</defs>
							<use xlink:href="#XMLID_6_"  style="overflow:visible;fill:#FFFFFF;"/>
							<clipPath id="XMLID_00000065076170000192159430000003357448339657425546_">
								<use xlink:href="#XMLID_6_"  style="overflow:visible;"/>
							</clipPath>
							<path style="clip-path:url(#XMLID_00000065076170000192159430000003357448339657425546_);" d="M184.437,96.259
								c0.021,1.786-0.87,3.244-1.991,3.257c-1.12,0.013-2.046-1.424-2.067-3.21c-0.021-1.786,0.87-3.244,1.991-3.257
								C183.491,93.036,184.416,94.474,184.437,96.259z"/>
						</g>
						<g>
							<path d="M178.907,94.849c0.483-0.6,1.045-1,1.697-1.29c0.65-0.278,1.351-0.403,2.059-0.321
								c0.708,0.084,1.367,0.43,1.844,0.917c0.487,0.484,0.835,1.062,1.069,1.695c0.026,0.071-0.01,0.15-0.081,0.177
								c-0.068,0.025-0.143-0.007-0.173-0.071l-0.005-0.011c-0.255-0.558-0.632-1.089-1.095-1.479
								c-0.459-0.402-1.028-0.637-1.61-0.664c-0.579-0.028-1.184,0.135-1.697,0.409c-0.51,0.268-0.986,0.698-1.277,1.132l-0.02,0.03
								c-0.136,0.203-0.411,0.257-0.614,0.121c-0.203-0.136-0.257-0.411-0.121-0.614C178.891,94.869,178.899,94.858,178.907,94.849z
								"/>
						</g>
					</g>
					<path style="fill:#FFFFFF;" d="M178.759,107.575h-8.662c0,0,0.094,3.522,4.2,3.51
						C178.692,111.071,178.759,107.575,178.759,107.575z"/>
					<path d="M179.59,88.97c0.582,0.131,1.138,0.124,1.672,0.138c0.523,0.007,1.072-0.038,1.516-0.01
						c0.915,0.069,1.997,0.507,3.101,0.797l0.025,0.007c0.212,0.056,0.412-0.122,0.448-0.397c0.022-0.171-0.027-0.342-0.116-0.458
						c-0.456-0.583-0.958-1.022-1.512-1.4c-0.554-0.367-1.155-0.656-1.839-0.774c-0.692-0.091-1.279-0.028-1.877,0.16
						c-0.586,0.205-1.141,0.478-1.646,0.994c-0.172,0.176-0.198,0.507-0.057,0.738c0.067,0.11,0.159,0.177,0.256,0.2L179.59,88.97z"
						/>
					<path d="M171.624,87.841c-0.862-0.532-1.739-0.783-2.633-0.936c-0.898-0.141-1.786-0.128-2.717,0.065
						c-0.94,0.197-1.789,0.638-2.594,1.159c-0.801,0.542-1.551,1.165-2.24,1.971c-0.162,0.189-0.18,0.538-0.04,0.778
						c0.104,0.18,0.267,0.248,0.41,0.193l0.016-0.006c1.62-0.632,3.223-1.382,4.752-1.643c0.769-0.117,1.609-0.13,2.433-0.198
						c0.83-0.07,1.678-0.116,2.532-0.304l0.017-0.004c0.213-0.047,0.352-0.335,0.31-0.643
						C171.842,88.076,171.745,87.917,171.624,87.841z"/>
				</g>
				<g>
					<path d="M153.812,100.539l0.437-0.797c1.719-3.133,2.144-6.879,0.895-10.227c-0.161-0.432-0.334-0.816-0.51-1.142
						c-1.007-1.867-1.078-4.885,2.1-7.543c4.661-3.898,14.464-7.109,23.487-4.068c2.553,0.861,4.611,2.649,5.805,5.064
						c0.531,1.075,1.178,2.847,1.271,3.915l-0.309-2.975c-0.682-9.059-8.565-15.13-17.619-14.39
						c-3.171,0.259-6.817,0.142-10.793,1.088c-10.052,2.392-17.273,12.338-13.633,22.007l3.569,6.413L153.812,100.539z"/>
					<path d="M180.325,64.987c-5.871-3.146-10.855-1.44-18.532,4.525c-2.498,1.94-0.956,3.615,2.247,4.993l-6.819,1.285
						l-0.487,5.041c0,0,2.614-2.328,9.497-0.101c11.592,3.751,17.524,0.635,19.318-3.479
						C185.83,74.136,185.001,67.493,180.325,64.987z"/>
				</g>
				<g>
					<path style="fill:#E9B0AA;" d="M144.32,103.552c0.006,3.357,3.284,6.03,6.536,6.039c3.252,0.009,5.883-2.705,5.878-6.062
						c-0.006-3.357-3.922-5.975-7.174-5.984C146.308,97.536,144.314,100.195,144.32,103.552z"/>
					
						<path style="fill:none;stroke:#000000;stroke-width:0.5929;stroke-linecap:round;stroke-linejoin:round;stroke-miterlimit:10;" d="
						M152.91,105.577c0,0-0.97-4.619-5.363-3.613"/>
				</g>
			</g>
			<g>
				<g>
					<g>
						<path style="fill:#2F3C7E;" d="M179.791,164.703l28.946,36.672c4.011,4.647,10.853,5.582,15.964,2.182l0,0
							c5.987-3.982,7.238-12.258,2.696-17.833l-28.02-38.609c-4.59-5.634-12.933-5.167-18.377-0.353l0,0
							C175.753,151.403,175.214,159.401,179.791,164.703z"/>
						<g>
							<g>
								<path style="fill:#E9B0AA;" d="M266.862,169.945l-6.337-8.451l-21.334,12.09c2.008,3.411,4.867,7.482,6.902,10.891
									L266.862,169.945z"/>
								<g>
									<path style="fill:#E9B0AA;" d="M259.625,159.814l0.404-2.231c0.543-2.998,1.783-5.826,3.62-8.257l3.234-4.279
										c0.769-1.017,2.267-1.099,3.142-0.172l0,0c0.739,0.783,0.928,1.936,0.478,2.913l-2.381,5.171l14.332-10.092
										c0.769-0.577,1.87-0.347,2.345,0.489l0.318,0.561c0.375,0.66,0.232,1.493-0.341,1.992l-10.484,8.033l13.319-7.562
										c0.802-0.524,1.882-0.227,2.304,0.633l0.209,0.426c0.355,0.723,0.115,1.598-0.56,2.038l-11.397,7.348l9.877-3.677
										c0.944-0.385,2.002,0.202,2.175,1.207l0.035,0.202c0.119,0.689-0.224,1.374-0.847,1.692l-9.988,4.551l5.675-1.157
										c1.108-0.396,2.248,0.502,2.124,1.672l0,0c-0.059,0.557-0.406,1.041-0.913,1.277l-23.66,9.87l-2.33-5.822
										C259.448,164.475,259.209,162.109,259.625,159.814z"/>
								</g>
							</g>
							<g>
								<polygon style="fill:#2F3C7E;" points="224.702,203.557 262.871,178.833 252.696,160.479 209.626,185.439 								"/>
							</g>
						</g>
					</g>
					<g>
						<g style="enable-background:new    ;">
							<g>
								<path style="fill:#3C2A82;" d="M272.126,142.642l-12.532,32.368l16.392-6.784l7.637,16.973l11.433-29.544
									c-2.77-0.962-5.221-4.35-7.903-5.078c-0.542-0.143-1.12-0.193-1.722-0.186c-1.005,0.012-2.073,0.184-3.138,0.357
									c-1.059,0.174-2.116,0.347-3.106,0.359c-0.99,0.012-1.912-0.139-2.702-0.613
									C274.156,149.104,273.523,145.326,272.126,142.642"/>
								<path style="fill:#2F3C7E;" d="M320.072,143.314c-0.987,2.527-1.671,5.477-3.64,6.71c-0.779,0.493-1.697,0.665-2.687,0.676
									c-0.99,0.012-2.05-0.137-3.113-0.286c-1.068-0.148-2.14-0.295-3.145-0.284c-0.602,0.007-1.179,0.071-1.717,0.227
									c-2.96,0.881-5.562,5.055-8.726,5.512l12.025,29.03l7.236-17.148l16.546,6.397L320.072,143.314"/>
								<path style="fill:#E0704F;" d="M296.408,145.555c-16.931,0.199-30.83-13.988-31.038-31.693
									c-0.208-17.705,13.354-32.224,30.285-32.422c16.931-0.199,30.821,13.998,31.029,31.703
									C326.892,130.847,313.339,145.356,296.408,145.555 M295.545,72.05c-3.401,0.04-6.122,4.625-9.25,5.553
									c-0.545,0.161-1.129,0.227-1.739,0.234c-0.998,0.012-2.063-0.135-3.123-0.281c-1.067-0.149-2.131-0.299-3.124-0.287
									c-0.985,0.012-1.9,0.182-2.676,0.668c-2.845,1.788-2.999,7.186-5.301,9.67c-2.293,2.483-7.45,2.828-9.065,5.873
									c-1.597,2.997,0.826,7.749,0.004,11.154c-0.787,3.291-5.096,6.263-5.055,9.819c0.042,3.547,4.42,6.417,5.284,9.688
									c0.901,3.385-1.409,8.192,0.258,11.151c1.686,3.006,6.85,3.23,9.2,5.658c0.456,0.469,0.834,1.049,1.168,1.692
									c1.397,2.684,2.03,6.463,4.358,7.851c0.79,0.474,1.712,0.625,2.702,0.613c0.99-0.012,2.046-0.185,3.106-0.359
									c1.065-0.173,2.133-0.345,3.138-0.357c0.601-0.007,1.18,0.044,1.722,0.186c2.682,0.728,5.133,4.116,7.903,5.078
									c0.481,0.167,0.971,0.262,1.474,0.256c0.173-0.002,0.345-0.016,0.514-0.041c3.165-0.457,5.767-4.631,8.726-5.512
									c0.538-0.156,1.116-0.22,1.717-0.227c1.005-0.012,2.077,0.136,3.145,0.284c1.063,0.149,2.124,0.298,3.113,0.286
									c0.99-0.012,1.908-0.184,2.687-0.676c1.968-1.233,2.653-4.183,3.64-6.71c0.444-1.137,0.95-2.189,1.662-2.96
									c2.302-2.484,7.45-2.828,9.074-5.873c1.588-2.997-0.835-7.749-0.013-11.154c0.787-3.291,5.105-6.263,5.064-9.81
									c-0.042-3.556-4.429-6.426-5.293-9.697c-0.901-3.385,1.409-8.192-0.249-11.151c-1.695-3.006-6.85-3.23-9.209-5.658
									c-2.35-2.429-2.631-7.822-5.527-9.543c-0.787-0.468-1.706-0.617-2.692-0.605c-0.994,0.012-2.057,0.186-3.125,0.36
									c-1.051,0.171-2.11,0.343-3.107,0.355c-0.609,0.007-1.195-0.045-1.743-0.193C301.774,76.53,298.946,72.011,295.545,72.05"/>
								<g>
									<defs>
										<path id="XMLID_1_" d="M295.655,81.439c-16.931,0.199-30.493,14.717-30.285,32.422
											c0.208,17.705,14.106,31.892,31.038,31.693c16.931-0.199,30.484-14.708,30.276-32.413
											C326.476,95.437,312.586,81.24,295.655,81.439"/>
									</defs>
									<use xlink:href="#XMLID_1_"  style="overflow:visible;fill:#F2CF88;"/>
									<clipPath id="XMLID_00000023990707533274241420000011325573192980535937_">
										<use xlink:href="#XMLID_1_"  style="overflow:visible;"/>
									</clipPath>
									<path style="clip-path:url(#XMLID_00000023990707533274241420000011325573192980535937_);fill:#E8C079;" d="
										M270.116,93.338c0,0-9.164,29.577,14.821,40.369c25.203,11.34,47.829-11.583,47.829-11.583l-17.046,45.635l-53.557-10.125
										l-23.501-29.136l10.678-34.916L270.116,93.338"/>
								</g>
							</g>
						</g>
					</g>
				</g>
				<g>
					<g>
						<g>
							<path style="fill:#DC9B97;" d="M122.924,242.495c0,0-0.169-1.808,1.303-2.581c1.472-0.772,3.059,1.905,3.059,1.905l3.68,7.27
								l-3.758,1.964l-2.965-0.044L122.924,242.495z"/>
							<path style="fill:#E9B0AA;" d="M135.023,224.848c0,0,5.167,2.397,4.811,6.667l-4.627,19.621
								c-0.385,1.634-1.723,2.871-3.381,3.128l-4.321,0.669c-2.609,0.404-5.136-1.072-6.076-3.539
								c-0.746-1.961-1.477-4.564-1.767-7.699c-0.074-0.794,0.415-1.534,1.16-1.819l0.002-0.001c0.908-0.347,1.927,0.085,2.31,0.979
								l2.729,6.374l2.477-1.837c0,0-3.893-6.373,0.228-13.551L135.023,224.848z"/>
						</g>
						<polygon style="fill:#E9B0AA;" points="138.177,227.198 126.711,207.858 117.891,217.239 130.576,236.006 						"/>
					</g>
					<g>
						<polygon style="fill:#2F3C7E;" points="92.524,193.177 119.311,230.322 136.625,218.347 110.661,178.123 						"/>
					</g>
				</g>
				<g>
					<path style="fill:#2F3C7E;" d="M171.391,135.049l23.178,7.873c1.155,0.471,1.917,1.588,1.933,2.835l-1.813,85.308h-56.315
						l-3.14-62.229l0.228-25.054l26.5-8.733H171.391z"/>
					<polygon style="fill:#E9B0AA;" points="154.463,137.523 161.96,135.049 171.391,135.049 177.534,137.235 172.019,150.942 					
						"/>
					
						<line style="fill:none;stroke:#000000;stroke-width:0.5745;stroke-linecap:round;stroke-linejoin:round;stroke-miterlimit:10;" x1="195.671" y1="184.801" x2="196.062" y2="166.398"/>
				</g>
				<g>
					<path style="fill:#2F3C7E;" d="M130.744,146.504l-37.078,29.905c-4.544,4.127-5.306,10.99-1.779,16.014l0,0
						c4.132,5.885,12.437,6.927,17.895,2.245l37.889-28.986c5.516-4.731,5.988-13.102,1.038-18.422v0
						C143.938,142.132,135.929,141.794,130.744,146.504z"/>
					
						<line style="fill:none;stroke:#000000;stroke-width:0.5745;stroke-linecap:round;stroke-linejoin:round;stroke-miterlimit:10;" x1="135.57" y1="175.313" x2="146.471" y2="166.986"/>
				</g>
			</g>
			<g>
				<g>
					<g>
						<polygon style="fill:#E9B0AA;" points="190.39,441.627 172.607,441.991 171.663,405.913 190.97,405.549 						"/>
						<g>
							<g>
								<defs>
									<path id="XMLID_12_" d="M168.457,434.597l27.315-0.112c0,0,0.479,5.914,9.13,6.789c8.651,0.875,13.448,5.406,14.155,11.547
										l-54.156,0.222C164.901,453.043,165.317,445.76,168.457,434.597z"/>
								</defs>
								<use xlink:href="#XMLID_12_"  style="overflow:visible;fill:#602E22;"/>
								<clipPath id="XMLID_00000075139655090450002420000000977630281135941288_">
									<use xlink:href="#XMLID_12_"  style="overflow:visible;"/>
								</clipPath>
								<path style="clip-path:url(#XMLID_00000075139655090450002420000000977630281135941288_);fill:#FFFFFF;" d="M212.123,439.99
									c0,0-9.863-0.01-13.714,16.785c-3.851,16.795,0,0,0,0l22.507-0.092C220.916,456.682,218.835,442.491,212.123,439.99z"/>
							</g>
							
								<rect x="164.909" y="452.932" transform="matrix(1 -0.0041 0.0041 1 -1.8613 0.7901)" style="fill:#FFFFFF;" width="54.157" height="3.868"/>
							
								<path style="fill:none;stroke:#FFFFFF;stroke-width:1.2138;stroke-linecap:round;stroke-linejoin:round;stroke-miterlimit:10;" d="
								M197.691,438.268c0,0-1.708-0.011-5.084,2.559"/>
							
								<path style="fill:none;stroke:#FFFFFF;stroke-width:1.2138;stroke-linecap:round;stroke-linejoin:round;stroke-miterlimit:10;" d="
								M201.763,440.79c0,0-3.139,0.183-5.005,2.607"/>
						</g>
					</g>
					<polygon style="fill:#8FA1F2;" points="194.688,231.066 193.288,424.083 168.742,424.083 163.902,231.066 					"/>
				</g>
				<g>
					<g>
						<polygon style="fill:#E9B0AA;" points="127.799,441.627 145.582,441.991 149.572,405.913 130.265,405.549 						"/>
						<g>
							<g>
								<defs>
									<path id="XMLID_9_" d="M149.732,434.597l-27.315-0.112c0,0-0.479,5.914-9.13,6.789
										c-8.651,0.875-13.448,5.406-14.156,11.547l54.156,0.222C153.288,453.043,152.872,445.76,149.732,434.597z"/>
								</defs>
								<use xlink:href="#XMLID_9_"  style="overflow:visible;fill:#602E22;"/>
								<clipPath id="XMLID_00000031193820516474690300000012520395959243861893_">
									<use xlink:href="#XMLID_9_"  style="overflow:visible;"/>
								</clipPath>
								<path style="clip-path:url(#XMLID_00000031193820516474690300000012520395959243861893_);fill:#FFFFFF;" d="M106.066,439.99
									c0,0,9.863-0.01,13.714,16.785c3.851,16.795,0,0,0,0l-22.507-0.092C97.273,456.682,99.354,442.491,106.066,439.99z"/>
							</g>
							
								<rect x="99.123" y="452.932" transform="matrix(-1 -0.0041 0.0041 -1 250.5393 910.2463)" style="fill:#FFFFFF;" width="54.157" height="3.868"/>
							
								<path style="fill:none;stroke:#FFFFFF;stroke-width:1.2138;stroke-linecap:round;stroke-linejoin:round;stroke-miterlimit:10;" d="
								M120.498,438.268c0,0,1.707-0.011,5.084,2.559"/>
							
								<path style="fill:none;stroke:#FFFFFF;stroke-width:1.2138;stroke-linecap:round;stroke-linejoin:round;stroke-miterlimit:10;" d="
								M116.426,440.79c0,0,3.139,0.183,5.005,2.607"/>
						</g>
					</g>
					<g>
						<polygon style="fill:#8FA1F2;" points="138.378,231.066 125.893,424.083 151.684,424.083 172.1,231.066 						"/>
						
							<polyline style="fill:none;stroke:#000000;stroke-width:0.5745;stroke-linecap:round;stroke-linejoin:round;stroke-miterlimit:10;" points="
							165.34,294.978 168.548,263.494 179.24,258.165 						"/>
					</g>
				</g>
			</g>
		</g>
		<g>
			<g>
				<g>
					<g>
						<g>
							<path style="fill:#231813;" d="M538.23,445.985l-11.434,5.643c-1.212,0.598-1.946,1.967-1.57,3.265
								c0.297,1.026,1.267,1.971,3.811,2.016c5.653,0.101,30.672-2.735,30.672-2.735v2.625l11.864,0.113
								c0,0,0.557-14.701-2.979-16.643L538.23,445.985z"/>
							<path style="fill:#DAA07A;" d="M556.661,436.006l-18.431,9.979c0,0,1.971,6.131,10.7,2.752
								c8.729-3.379,19.664-8.469,19.664-8.469L567,434.57L556.661,436.006z"/>
						</g>
						<polygon style="fill:#DAA07A;" points="568.594,440.268 570.779,392.412 553.36,393.963 555.371,439.83 						"/>
					</g>
					<polygon style="fill:#602E22;" points="545.367,268.684 548.766,421.565 574.538,422.002 576.96,254.18 					"/>
				</g>
				<g>
					<g>
						<g>
							<path style="fill:#231813;" d="M613.487,443.161l-8.9,9.131c-0.943,0.968-1.179,2.503-0.392,3.602
								c0.622,0.868,1.851,1.435,4.265,0.63c5.363-1.789,28.007-12.801,28.007-12.801l0.875,2.475l11.223-3.848
								c0,0-4.375-14.046-8.355-14.699L613.487,443.161z"/>
							<path style="fill:#DAA07A;" d="M627.539,427.609l-14.051,15.552c0,0,3.902,5.124,11.006-0.971
								c7.104-6.095,15.717-14.538,15.717-14.538l-3.402-4.841L627.539,427.609z"/>
						</g>
						<polygon style="fill:#DAA07A;" points="640.211,427.651 624.213,381.803 608.245,388.709 628.258,432.43 						"/>
					</g>
					<g>
						<path style="fill:#602E22;" d="M606.764,318.566l-3.87-45.058c1.782-45.005-10.224-53.785-10.224-53.785l-43.6,1.438
							c-4.395,18.448-3.703,47.524-3.703,47.524l22.789,14.723l6.524,33.572c0.621,2.792,1.456,5.532,2.5,8.195l37.531,91.001
							l23.932-10.342L606.764,318.566z"/>
						
							<path style="fill:none;stroke:#000000;stroke-width:0.5745;stroke-linecap:round;stroke-linejoin:round;stroke-miterlimit:10;" d="
							M556.434,250.88l10.196,6.503l4.784,44.865c0.782,6.643,2.31,13.18,4.546,19.484c0.012,0.034,0.024,0.068,0.036,0.101"/>
					</g>
				</g>
			</g>
			<g>
				<g>
					<g>
						<path style="fill:#F2CF88;" d="M564.767,167.228l-42.135,25.274c-5.629,3.42-12.923,2.116-17.019-3.042v0
							c-4.798-6.043-3.343-14.905,3.135-19.097l41.436-26.388c6.547-4.236,15.303-2.174,19.272,4.538l0,0
							C573.281,154.982,571.191,163.326,564.767,167.228z"/>
					</g>
					<path style="fill:#F2CF88;" d="M565.883,136.807l-13.203,5.89c0,0-11.219,9.567-7.366,32.699l2.637,12.822l1.119,32.942
						l43.6-1.438l14.066-52.6l-1.154-25.415l-15.39-4.889L565.883,136.807z"/>
					<g>
						<defs>
							<path id="XMLID_2_" d="M590.191,136.819l-26.967,29.325c0,0,0.82-21.38,2.659-29.337l4.713-2.139h12.892L590.191,136.819z"/>
						</defs>
						<use xlink:href="#XMLID_2_"  style="overflow:visible;fill:#DAA07A;"/>
						<clipPath id="XMLID_00000105413579068187409830000000754681518642219141_">
							<use xlink:href="#XMLID_2_"  style="overflow:visible;"/>
						</clipPath>
						<path style="clip-path:url(#XMLID_00000105413579068187409830000000754681518642219141_);fill:#FFFFFF;" d="M560.873,143.266
							c0,0,10.562,6.854,31.355-1.558l-12.877,27.773l-16.67,10.018l-8.864-15.874L560.873,143.266z"/>
					</g>
				</g>
				<g>
					<g>
						<g>
							<g>
								<path style="fill:#268F82;" d="M556.217,236.086l-92.495,6.003c-2.968,0.193-5.53-2.057-5.723-5.025l-4.569-70.394
									c-0.193-2.968,2.057-5.53,5.025-5.723l92.495-6.003c2.968-0.193,5.53,2.057,5.723,5.025l4.569,70.394
									C561.434,233.331,559.185,235.893,556.217,236.086z"/>
								<path style="fill:#268F82;" d="M551.659,236.382l-92.495,6.003c-2.968,0.193-5.53-2.057-5.723-5.025l-4.569-70.394
									c-0.193-2.968,2.057-5.53,5.025-5.723l92.495-6.004c2.968-0.193,5.53,2.057,5.723,5.025l4.569,70.394
									C556.876,233.627,554.627,236.189,551.659,236.382z"/>
							</g>
							<g>
								<path style="fill:#E3E3E3;" d="M493.458,219.887c-0.715,0.046-1.446-0.169-2.039-0.658l-16.947-13.95
									c-1.242-1.022-1.419-2.857-0.397-4.099c1.022-1.241,2.857-1.419,4.099-0.397l14.829,12.207l34.895-37.551
									c1.095-1.179,2.937-1.245,4.115-0.151c1.178,1.095,1.246,2.937,0.151,4.115l-36.761,39.559
									C494.878,219.529,494.176,219.84,493.458,219.887z"/>
								<path style="fill:#FFFFFF;" d="M491.875,219.99c-0.715,0.046-1.446-0.169-2.039-0.658l-16.947-13.95
									c-1.242-1.022-1.419-2.857-0.397-4.099c1.022-1.241,2.857-1.419,4.099-0.397l14.829,12.207l34.894-37.551
									c1.095-1.179,2.937-1.245,4.115-0.151c1.178,1.095,1.246,2.937,0.151,4.115l-36.761,39.56
									C493.294,219.632,492.593,219.943,491.875,219.99z"/>
							</g>
						</g>
						<g>
							<g>
								<path style="fill:#E3B461;" d="M577.112,202.098c0,0-4.531,13.94,6.063,21.719l7.008-12.587L577.112,202.098z"/>
								<g>
									<path style="fill:#DAA07A;" d="M560.961,207.837l2.322,14.394c0,0,6.865,1.394,12.437-3.056
										c0.624-0.498,0.052-2.996-0.117-3.797l-3.521-9.426L560.961,207.837z"/>
									<path style="fill:#DAA07A;" d="M562.672,207.609l-13.268,2.263c-1.288,0.213-2.169,1.328-1.981,2.508l0,0
										c0.181,1.131,1.286,1.928,2.535,1.829l13.671-1.547L562.672,207.609z"/>
									<path style="fill:#DAA07A;" d="M564.395,216.292l-13.209,3.58c-1.257,0.342-2.014,1.481-1.702,2.56l0,0
										c0.299,1.035,1.481,1.655,2.71,1.423l13.685-2.958L564.395,216.292z"/>
									<path style="fill:#DAA07A;" d="M565.598,219.46l-11.132,4.448c-1.029,0.559-1.474,1.624-1.001,2.393l0,0
										c0.454,0.737,1.598,0.947,2.624,0.48l12.155-4.434L565.598,219.46z"/>
									<path style="fill:#DAA07A;" d="M561.77,211.847l-12.719,3.438c-1.254,0.352-1.985,1.554-1.643,2.701l0,0
										c0.328,1.101,1.531,1.77,2.76,1.535l13.213-2.773L561.77,211.847z"/>
									<polygon style="fill:#DAA07A;" points="574.524,219.507 585.845,216.919 582.292,203.744 569.336,207.178 									"/>
									<g>
										<path style="fill:#DAA07A;" d="M560.329,202.882c0,0,4.436,0.105,8.83,0.961c1.017,0.198,4.734,2.678,4.922,5.18
											l-3.083,1.857c-8.024,1.332-8.937-2.498-8.937-2.498l-2.302-0.03l-0.365-5.441
											C559.696,202.852,560.011,202.838,560.329,202.882z"/>
									</g>
								</g>
								<path style="fill:#F2CF88;" d="M613.492,191.547l-36.381,10.551c0,0,6.201,7.711,6.063,21.719
									c0,0,28.564-2.657,50.402-16.513L613.492,191.547z"/>
							</g>
							
								<line style="fill:none;stroke:#000000;stroke-width:0.5745;stroke-linecap:round;stroke-linejoin:round;stroke-miterlimit:10;" x1="577.112" y1="202.098" x2="599.087" y2="195.725"/>
						</g>
					</g>
					<g>
						<g>
							<path style="fill:#F2CF88;" d="M612.632,147.683l24.355,42.673c3.297,5.702,1.835,12.966-3.411,16.949v0
								c-6.145,4.666-14.974,3.019-19.024-3.548l-25.485-41.998c-4.093-6.637-1.842-15.346,4.954-19.169h0
								C600.573,138.905,608.869,141.176,612.632,147.683z"/>
						</g>
						
							<line style="fill:none;stroke:#000000;stroke-width:0.5745;stroke-linecap:round;stroke-linejoin:round;stroke-miterlimit:10;" x1="602.327" y1="183.61" x2="593.604" y2="169.234"/>
					</g>
				</g>
			</g>
			<g>
				<path style="fill:#6A312C;" d="M550.361,96.073c3.886-8.547,0.222-14.937,6.153-24.127c5.748-8.907,18.251-7.877,18.251-7.877
					c0.001-0.015,0.002-0.028,0.002-0.028s15.851-0.468,21.524,10.368c3.79,7.239,4.271,15.167,9.167,23.174
					c5.171,8.458,2.195,22.154,2.195,22.154l-59.991,0.014C547.661,119.75,545.723,106.272,550.361,96.073z"/>
				<g>
					<path style="fill:#C88460;" d="M564.719,101.918c-0.608,3.469-3.804,5.253-7.273,4.644c-3.469-0.609-5.637-4.668-5.029-8.136
						c0.608-3.469,3.654-4.499,7.122-3.89S565.328,98.449,564.719,101.918z"/>
					<path style="fill:#FFFFFF;" d="M554.616,106.121c-0.143,0.7,0.308,1.384,1.008,1.527c0.7,0.143,1.384-0.308,1.527-1.008
						c0.143-0.7-0.308-1.384-1.008-1.527C555.443,104.969,554.76,105.421,554.616,106.121z"/>
				</g>
				<polygon style="fill:#DAA07A;" points="580.003,103.895 584.583,137.585 569.485,138.848 568.528,109.168 				"/>
				<polygon points="569.049,125.319 582.661,109.285 568.645,112.783 				"/>
				<path style="fill:#DAA07A;" d="M567.172,69.261c0,0-14.106,0.456-13.043,18.987c1.063,18.531,2.443,24.256,9.86,28.153
					c6.665,3.502,15.995-0.415,20.838-8.294c1.902-3.094,3.33-7.745,3.608-11.367l1.104-4.84
					C589.537,91.9,595.357,67.829,567.172,69.261z"/>
				<g>
					
						<polyline style="fill:none;stroke:#000000;stroke-width:0.5777;stroke-linecap:round;stroke-linejoin:round;stroke-miterlimit:10;" points="
						564.256,98.237 562.121,101.733 563.905,103.096 					"/>
					<g>
						<g>
							<defs>
								<path id="XMLID_29_" d="M570.177,94.169c0,0,0.037-2.491,4.772-2.125c4.251,0.328,4.728,2.237,4.728,2.237
									s-0.594,3.313-5.255,3.374C569.76,97.715,570.177,94.169,570.177,94.169z"/>
							</defs>
							<use xlink:href="#XMLID_29_"  style="overflow:visible;fill:#FFFFFF;"/>
							<clipPath id="XMLID_00000088826616794536523690000003946532522873258910_">
								<use xlink:href="#XMLID_29_"  style="overflow:visible;"/>
							</clipPath>
							<path style="clip-path:url(#XMLID_00000088826616794536523690000003946532522873258910_);" d="M577.189,94.577
								c-0.021,1.769-1.359,3.188-2.99,3.168c-1.631-0.019-2.936-1.469-2.915-3.238s1.359-3.188,2.99-3.168
								C575.904,91.358,577.21,92.808,577.189,94.577z"/>
						</g>
						<g>
							<path d="M569.706,92.893c0.853-0.638,1.718-0.963,2.647-1.194c0.923-0.216,1.855-0.294,2.795-0.229
								c1.873,0.119,3.735,1.077,4.68,2.73c0.047,0.082,0.018,0.186-0.063,0.233c-0.078,0.045-0.178,0.021-0.227-0.054l-0.012-0.017
								c-0.463-0.701-1.171-1.271-1.934-1.636c-0.773-0.364-1.62-0.548-2.474-0.545c-0.851-0.002-1.719,0.137-2.524,0.389
								c-0.793,0.244-1.604,0.659-2.155,1.14l-0.042,0.037c-0.229,0.2-0.576,0.176-0.776-0.052c-0.2-0.229-0.176-0.576,0.052-0.776
								C569.684,92.91,569.695,92.901,569.706,92.893z"/>
						</g>
					</g>
					<g>
						<g>
							<defs>
								<path id="XMLID_4_" d="M562.22,94.535c0,0,0.024-2.492-2.988-2.216c-2.704,0.247-3.044,2.146-3.044,2.146
									s0.3,3.01,3.258,3.16C562.403,97.774,562.22,94.535,562.22,94.535z"/>
							</defs>
							<use xlink:href="#XMLID_4_"  style="overflow:visible;fill:#FFFFFF;"/>
							<clipPath id="XMLID_00000180347244493687774420000003153329323027248020_">
								<use xlink:href="#XMLID_4_"  style="overflow:visible;"/>
							</clipPath>
							<path style="clip-path:url(#XMLID_00000180347244493687774420000003153329323027248020_);" d="M557.188,94.822
								c-0.021,1.769,0.862,3.214,1.972,3.227c1.11,0.013,2.026-1.41,2.047-3.179c0.021-1.769-0.862-3.214-1.972-3.227
								C558.125,91.63,557.208,93.053,557.188,94.822z"/>
						</g>
						<g>
							<path d="M561.94,93.914c-0.288-0.43-0.76-0.856-1.265-1.121c-0.507-0.272-1.108-0.433-1.681-0.405
								c-0.576,0.026-1.14,0.259-1.594,0.657c-0.459,0.387-0.832,0.913-1.084,1.466l-0.005,0.011
								c-0.031,0.068-0.112,0.099-0.181,0.067c-0.065-0.03-0.096-0.105-0.071-0.171c0.232-0.628,0.576-1.2,1.059-1.679
								c0.473-0.483,1.126-0.825,1.827-0.909c0.702-0.081,1.396,0.043,2.04,0.318c0.647,0.287,1.203,0.683,1.681,1.277
								c0.152,0.189,0.122,0.465-0.067,0.616c-0.189,0.152-0.465,0.122-0.616-0.067c-0.008-0.01-0.015-0.02-0.022-0.03
								L561.94,93.914z"/>
						</g>
					</g>
					
						<path style="fill:none;stroke:#000000;stroke-width:0.5777;stroke-linecap:round;stroke-linejoin:round;stroke-miterlimit:10;" d="
						M564.816,106.949c0,0,3.196,0.978,5.961-1.541"/>
					<path d="M560.74,87.014c-0.568,0.165-1.118,0.191-1.646,0.237c-0.517,0.038-1.063,0.027-1.5,0.082
						c-0.901,0.124-1.945,0.622-3.019,0.976l-0.024,0.008c-0.206,0.068-0.415-0.096-0.467-0.366c-0.032-0.168,0.006-0.34,0.087-0.46
						c0.416-0.605,0.886-1.069,1.411-1.477c0.526-0.396,1.103-0.718,1.773-0.878c0.68-0.132,1.264-0.105,1.867,0.045
						c0.593,0.168,1.158,0.404,1.688,0.884c0.181,0.164,0.227,0.489,0.102,0.727c-0.059,0.113-0.146,0.185-0.241,0.213
						L560.74,87.014z"/>
					<path d="M568.553,85.416c0.821-0.578,1.673-0.88,2.549-1.086c0.88-0.194,1.76-0.234,2.692-0.1
						c0.942,0.139,1.808,0.523,2.636,0.99c0.825,0.488,1.605,1.059,2.336,1.815c0.172,0.177,0.211,0.521,0.087,0.768
						c-0.092,0.184-0.249,0.262-0.394,0.216l-0.016-0.005c-1.641-0.527-3.272-1.173-4.801-1.339
						c-0.768-0.069-1.599-0.031-2.419-0.048c-0.825-0.019-1.668-0.014-2.524-0.148l-0.017-0.003
						c-0.214-0.034-0.368-0.31-0.345-0.617C568.352,85.661,568.438,85.498,568.553,85.416z"/>
				</g>
				<path style="fill:#6A312C;" d="M594.666,82.236c0,0-27.367,3.625-43.787,1.446c0,0,2.344-20.24,23.384-18.084
					C593.09,67.528,594.666,82.236,594.666,82.236z"/>
				<path style="fill:#6A312C;" d="M586.519,98.002l-0.435-0.76c-1.71-2.987-1.595-8.222,0.404-12.669
					c0.182-0.406,0.463-0.866,0.626-1.184c0.937-1.816-0.647-1.813-3.754-4.317c-4.557-3.673-14.054-6.593-22.69-3.506
					c-2.444,0.873-4.394,2.631-5.502,4.979c-0.493,1.045-1.084,2.762-1.155,3.793l0.246-2.871
					c0.498-8.736,7.983-14.721,16.716-14.167c3.059,0.194,6.567,0.018,10.414,0.859c9.722,2.128,16.851,11.579,13.514,20.956
					l-3.325,6.238L586.519,98.002z"/>
				<g>
					<path style="fill:#DAA07A;" d="M584.394,101.78c0.755,3.44,3.485,4.809,6.925,4.054c3.44-0.755,5.434-4.903,4.678-8.342
						c-0.755-3.44-3.842-4.339-7.281-3.584C585.275,94.662,583.638,98.34,584.394,101.78z"/>
					
						<path style="fill:none;stroke:#000000;stroke-width:0.5777;stroke-linecap:round;stroke-linejoin:round;stroke-miterlimit:10;" d="
						M592.262,98.294c0,0-3.072-0.952-4.351,3.907"/>
					<path style="fill:#FFFFFF;" d="M591.186,105.558c0.173,0.693-0.249,1.396-0.943,1.569c-0.693,0.173-1.396-0.249-1.569-0.942
						c-0.173-0.693,0.249-1.396,0.942-1.569C590.31,104.443,591.013,104.865,591.186,105.558z"/>
				</g>
			</g>
		</g>
		
			<line style="fill:none;stroke:#B1BCE2;stroke-width:1.4753;stroke-miterlimit:10;" x1="707.295" y1="457.235" x2="40.722" y2="457.235"/>
	</g>
</g>
</svg>
