<svg xmlns="http://www.w3.org/2000/svg" xmlns:xlink="http://www.w3.org/1999/xlink" width="174" height="41.859" viewBox="0 0 174 41.859">
  <defs>
    <clipPath id="clip-path">
      <rect id="Rectangle_115" data-name="Rectangle 115" width="174" height="41.859" fill="none"/>
    </clipPath>
  </defs>
  <g id="header-logo" clip-path="url(#clip-path)">
    <path id="Path_3877" data-name="Path 3877" d="M82.523,55.159h1.7V51.422h5.826v3.737h1.7v-8.68h-1.7v3.439H84.218V46.479h-1.7Zm11.258,0h1.7v-8.68h-1.7Zm3.236-2.746h2.925V51.148H97.017Zm6.734,2.746h1.7V47.936h3.88V46.479H99.87v1.457h3.881Zm6.722,0H118.4V53.7h-6.232V51.411h5.241V49.954h-5.241V47.936h6.089V46.479h-7.784Zm16.6-3.092a2.9,2.9,0,0,1-3.021,1.85c-1.862,0-3.306-1.051-3.306-3.044,0-1.8,1-3.152,3.4-3.152a2.745,2.745,0,0,1,2.794,1.529h1.7c-.131-.466-.7-2.985-4.585-2.985-3.45,0-5.038,1.886-5.038,4.418,0,3.164,2.162,4.692,4.908,4.692,3.988,0,4.68-2.34,4.847-3.308Zm3.068,3.092h1.7V51.422h5.827v3.737h1.7v-8.68h-1.7v3.439h-5.827V46.479h-1.7Zm15.342,0h1.7V51.411h5.408V49.954h-5.408V47.936h6.291V46.479h-7.986Zm9.276,0h1.7v-8.68h-1.7Zm3.737,0h7.988v-1.5h-6.292V46.479h-1.7Zm13.444,0h1.349l2.781-6.578h.024v6.578h1.5v-8.68h-2.233L172.6,52.915l-2.711-6.436h-2.28v8.68h1.5V48.581h.024Zm15.9-6.566c-.215-.6-.859-2.328-4.6-2.328-.669,0-4.047,0-4.047,2.6,0,1.326,1.122,2.2,3.128,2.471l2.077.287c1.242.155,1.886.526,1.886,1.087,0,.752-1.146,1.205-2.531,1.205-2.293,0-2.937-.919-3.247-1.552l-1.636.513c.2.657,1.11,2.5,4.835,2.5,2.316,0,4.274-.764,4.274-2.818,0-1.456-1.146-2.208-3.092-2.507l-2.053-.31c-1.731-.215-1.946-.609-1.946-.979,0-.8,1.158-1.087,2.3-1.087,2.066,0,2.77.669,3.044,1.445Z" transform="translate(-30.827 -17.283)" fill="#6d6f72" fill-rule="evenodd"/>
    <path id="Path_3878" data-name="Path 3878" d="M23.893,0C12.353,0,.858,9.391.051,20.931A19.282,19.282,0,0,0,19.519,41.859H33.282l8.266-23.495-15.2,0-3.194,8.9h-2.7a5.83,5.83,0,0,1-5.888-6.328c.244-3.491,4.73-6.33,8.22-6.33H42.791l1.9-5.436H23.165c-6.487,0-13.582,5.28-14.036,11.766A10.839,10.839,0,0,0,20.072,32.694H26.9l3.078-8.859h4.012l-4.46,12.588H19.9A14.274,14.274,0,0,1,5.487,20.931c.6-8.544,9.482-15.5,18.026-15.5H45.988L47.884,0Z" transform="translate(0 0)" fill="#e50019" fill-rule="evenodd"/>
    <path id="Path_3879" data-name="Path 3879" d="M91.428,29.615a11.4,11.4,0,0,0,7.436-2.666V19.268H91.012v3.474h3.351v2.079a4.731,4.731,0,0,1-2.74.709,4.529,4.529,0,0,1-4.648-4.77v-.049a4.477,4.477,0,0,1,4.379-4.673,6,6,0,0,1,4.134,1.615l2.788-3.376a9.973,9.973,0,0,0-6.947-2.471,8.883,8.883,0,0,0-9.2,8.9v.049c0,5.186,3.963,8.855,9.3,8.855" transform="translate(-30.682 -4.411)" fill="#6d6f72" fill-rule="evenodd"/>
    <path id="Path_3880" data-name="Path 3880" d="M108.568,29.4h4.966l1.223-3.082h6.629l1.223,3.082H127.7l-7.29-17.245h-4.574Zm7.583-6.776,1.933-4.843,1.908,4.843Z" transform="translate(-40.557 -4.542)" fill="#6d6f72" fill-rule="evenodd"/>
    <path id="Path_3881" data-name="Path 3881" d="M139.807,29.476h4.745V24.291h2.1l3.449,5.186h5.454l-4.085-5.968A5.425,5.425,0,0,0,155,18.224v-.049a5.345,5.345,0,0,0-1.517-3.987c-1.15-1.15-2.959-1.835-5.577-1.835h-8.1Zm4.745-8.9V16.439h3.131c1.565,0,2.568.685,2.568,2.055v.049c0,1.247-.954,2.03-2.544,2.03Z" transform="translate(-52.227 -4.615)" fill="#6d6f72" fill-rule="evenodd"/>
    <path id="Path_3882" data-name="Path 3882" d="M168.451,29.569h4.134l3.449-9.858,3.425,9.858h4.134l5.724-17.245H184.4l-2.984,9.907-3.3-9.956h-4.085l-3.3,9.956-2.984-9.907h-5.015Z" transform="translate(-60.789 -4.586)" fill="#6d6f72" fill-rule="evenodd"/>
    <path id="Path_3883" data-name="Path 3883" d="M198.612,29.4h4.966l1.223-3.082h6.628l1.223,3.082h5.088l-7.29-17.245h-4.574Zm7.583-6.776,1.933-4.843,1.908,4.843Z" transform="translate(-74.194 -4.542)" fill="#6d6f72" fill-rule="evenodd"/>
    <path id="Path_3884" data-name="Path 3884" d="M229.46,29.476h4.745V24.291h2.1l3.449,5.186h5.454l-4.084-5.968a5.425,5.425,0,0,0,3.522-5.284v-.049a5.345,5.345,0,0,0-1.517-3.987c-1.15-1.15-2.959-1.835-5.577-1.835h-8.1Zm4.745-8.9V16.439h3.131c1.565,0,2.568.685,2.568,2.055v.049c0,1.247-.954,2.03-2.544,2.03Z" transform="translate(-85.718 -4.615)" fill="#6d6f72" fill-rule="evenodd"/>
    <path id="Path_3885" data-name="Path 3885" d="M255.582,29.477h13.894V25.44h-9.2V22.725H268.5V18.982h-8.219V16.365h9.075V12.354H255.582Z" transform="translate(-95.476 -4.615)" fill="#6d6f72" fill-rule="evenodd"/>
  </g>
</svg>
