<svg xmlns="http://www.w3.org/2000/svg" width="2500" viewBox="0 0 192.756 192.756"><g fill-rule="evenodd" clip-rule="evenodd"><path fill="#fff" d="M0 0h192.756v192.756H0V0z"/><path d="M187.957 130.129h.393c.1 0 .393 0 .393.295s-.293.295-.393.295h-.393v-.59zm-.195 1.473h.195v-.688h.295c.295 0 .393 0 .393.295s.098.295.098.393h.197c0-.098 0-.295-.098-.49 0-.197 0-.295-.197-.295.295-.098.295-.393.295-.393 0-.49-.49-.49-.59-.49h-.588v1.668zm.588-2.358c-.883 0-1.57.689-1.57 1.572 0 .885.688 1.572 1.57 1.572.885 0 1.572-.688 1.572-1.572 0-.882-.688-1.572-1.572-1.572zm0 .197c.785 0 1.375.59 1.375 1.375s-.59 1.375-1.375 1.375-1.375-.59-1.375-1.375.589-1.375 1.375-1.375z" fill="#0c0e0f"/><path fill="#c24e4f" d="M2.834 74.445h15.812l8.643 17.186h.098V74.445h9.33v25.633H21.396L12.263 81.81h-.098v18.268H2.834V74.445zM61.858 87.31c0 5.205-2.652 7.66-6.187 7.66-3.536 0-6.187-2.455-6.187-7.66 0-5.303 2.651-7.758 6.187-7.758 3.535 0 6.187 2.455 6.187 7.758zm10.999 0c0-7.758-4.616-13.553-17.187-13.553-6.58 0-9.723 1.08-12.178 2.848-3.044 2.062-5.008 5.696-5.008 10.705 0 7.66 4.616 13.456 17.187 13.456 6.58 0 11.097-1.768 13.847-4.42 2.161-2.063 3.339-5.108 3.339-9.036zM74.527 74.445h16.401l5.401 17.186h.098l5.206-17.186h16.4v25.633h-10.017V80.829h-.098l-6.973 19.249H90.436l-6.58-19.249h-.098v19.249h-9.231V74.445zM120.096 74.445h24.55v5.401h-14.14v4.714h13.258v5.401h-13.258v4.714h14.338v5.403h-24.748V74.445zM157.709 86.917l-11.195-12.472h14.043l5.892 7.955 5.992-7.955h13.258l-11.392 12.472 11.785 13.161h-14.045l-6.383-8.643-6.482 8.643h-13.061l11.588-13.161zM188.055 75.23h.395c.098 0 .293 0 .293.294 0 .196-.195.196-.293.196h-.395v-.49zm-.196 1.474h.195v-.786h.295c.295 0 .295.098.393.393v.393h.295c-.098-.196-.098-.295-.098-.491s-.098-.294-.295-.393c.393-.099.393-.295.393-.393 0-.393-.49-.393-.588-.393h-.59v1.67zm.491-2.357c-.785 0-1.57.688-1.57 1.571s.785 1.571 1.57 1.571c.885 0 1.572-.688 1.572-1.571s-.688-1.571-1.572-1.571zm0 .196c.785 0 1.475.589 1.475 1.375s-.689 1.375-1.475 1.375c-.688 0-1.375-.589-1.375-1.375s.687-1.375 1.375-1.375z"/></g></svg>